<?xml version="1.0" encoding="UTF-8"?>
<!-- Generator: Adobe Illustrator 18.1.1, SVG Export Plug-In . SVG Version: 6.00 Build 0)  -->
<svg version="1.1" id="Layer_1" xmlns="http://www.w3.org/2000/svg" xmlns:xlink="http://www.w3.org/1999/xlink" x="0px" y="0px" viewBox="0 0 93 31" enable-background="new 0 0 93 31" xml:space="preserve"><script xmlns="" type="text/javascript" charset="utf-8" id="zm-extension"/>
<g>
	<path fill="#FFFFFF" d="M8.6,9.4L6,21.8h5.2L8.6,9.4L8.6,9.4z M0.1,30.6L6.8,2.1h3.6l6.7,28.5h-3.9L11.8,25H5.3L4,30.6H0.1   L0.1,30.6z M18.9,30.6V11.4h3.4v2.7c0.6-1,1.2-1.8,1.9-2.2c0.7-0.5,1.6-0.8,2.8-0.9v3.7h-0.2c-1.6,0-2.7,0.3-3.4,1   c-0.7,0.6-1,1.7-1,3.3v11.5H18.9L18.9,30.6z M30.4,30.6V14h-2v-2.6h2V6.2h3.5v5.2h2.6V14h-2.6v16.6H30.4L30.4,30.6z M41.1,27.8   c0.8,0,1.4-0.2,1.8-0.7c0.4-0.5,0.6-1,0.6-1.6c0-0.8-0.2-1.4-0.6-2c-0.4-0.5-1.1-1.3-2-2.2c-0.9-0.9-1.6-1.8-2.1-2.6   c-0.4-0.8-0.7-1.8-0.7-2.9c0-1,0.2-1.8,0.7-2.5c0.4-0.7,1.1-1.2,1.9-1.6c0.8-0.4,1.7-0.6,2.6-0.6c1,0,2,0.3,3.2,0.8v3.6   c-0.8-0.8-1.8-1.3-2.8-1.3c-1.5,0-2.3,0.7-2.3,2c0,0.8,0.2,1.5,0.5,2c0.3,0.5,1,1.2,2,2.2c1,1,1.7,1.9,2.3,2.7   c0.5,0.8,0.8,1.8,0.8,3c0,1.5-0.5,2.7-1.4,3.5c-1,0.9-2.3,1.3-4,1.3c-1.3,0-2.4-0.2-3.3-0.7v-3.6C38.8,27.4,39.9,27.8,41.1,27.8   L41.1,27.8z M54.5,11.1c2.2,0,3.8,0.9,4.8,2.7c1.1,1.8,1.6,4.2,1.6,7.2c0,3-0.5,5.4-1.6,7.2c-1.1,1.8-2.7,2.7-4.8,2.7   c-2.1,0-3.8-0.9-4.8-2.7c-1.1-1.8-1.6-4.2-1.6-7.2c0-3,0.5-5.4,1.6-7.2C50.7,12,52.3,11.1,54.5,11.1L54.5,11.1z M54.5,14.2   c-2,0-3,2.3-3,6.9c0,4.6,1,6.9,3,6.9c2,0,2.9-2.3,2.9-6.9C57.4,16.5,56.5,14.2,54.5,14.2L54.5,14.2z M63.7,30.6V14.2h-1.9v-2.7h1.9   V4.7c0-3.2,1.4-4.7,4.1-4.7c0.8,0,1.5,0.1,2.3,0.4v3.2c-0.5-0.1-1-0.2-1.4-0.2c-1,0-1.4,0.6-1.4,1.9v6.2h2.6v2.7h-2.6v16.4H63.7   L63.7,30.6z M72.8,30.6V14h-2v-2.6h2V6.2h3.5v5.2H79V14h-2.6v16.6H72.8L72.8,30.6z M89.3,18.9c-0.3-3.1-1.2-4.7-2.9-4.7   c-1.7,0-2.6,1.6-2.9,4.7H89.3L89.3,18.9z M92.7,24.2c-0.7,4.5-2.8,6.8-6.2,6.8c-2.1,0-3.7-0.9-4.8-2.7c-1.1-1.8-1.6-4.2-1.6-7.2   c0-3,0.5-5.4,1.6-7.2c1.1-1.8,2.7-2.7,4.9-2.7c2.2,0,3.8,0.9,4.8,2.7c1.1,1.8,1.6,4.2,1.6,7.2v0.6h-9.5c0.1,1.8,0.3,3.3,0.8,4.5   c0.5,1.2,1.2,1.8,2.2,1.8c1.4,0,2.4-1.3,2.7-3.8H92.7L92.7,24.2z"/>
</g>
</svg>
