<?xml version="1.0" encoding="UTF-8" standalone="no"?>
<svg
   xmlns:dc="http://purl.org/dc/elements/1.1/"
   xmlns:cc="http://creativecommons.org/ns#"
   xmlns:rdf="http://www.w3.org/1999/02/22-rdf-syntax-ns#"
   xmlns:svg="http://www.w3.org/2000/svg"
   xmlns="http://www.w3.org/2000/svg"
   xmlns:sodipodi="http://sodipodi.sourceforge.net/DTD/sodipodi-0.dtd"
   xmlns:inkscape="http://www.inkscape.org/namespaces/inkscape"
   enable-background="new 0 0 40 40"
   id="Слой_1"
   version="1.1"
   viewBox="0 0 40 40"
   xml:space="preserve"
   inkscape:version="0.91 r13725"
   sodipodi:docname="reload.svg"><metadata
     id="metadata4194"><rdf:RDF><cc:Work
         rdf:about=""><dc:format>image/svg+xml</dc:format><dc:type
           rdf:resource="http://purl.org/dc/dcmitype/StillImage" /></cc:Work></rdf:RDF></metadata><defs
     id="defs4192" /><sodipodi:namedview
     pagecolor="#ffffff"
     bordercolor="#666666"
     borderopacity="1"
     objecttolerance="10"
     gridtolerance="10"
     guidetolerance="10"
     inkscape:pageopacity="0"
     inkscape:pageshadow="2"
     inkscape:window-width="1871"
     inkscape:window-height="1056"
     id="namedview4190"
     showgrid="false"
     inkscape:zoom="23.075"
     inkscape:cx="20"
     inkscape:cy="20"
     inkscape:window-x="49"
     inkscape:window-y="24"
     inkscape:window-maximized="1"
     inkscape:current-layer="Слой_1" /><g
     id="g4182"
     style="fill:#ffffff"><path
       d="M20,40C9,40,0,31,0,20S9,0,20,0c4.5,0,8.7,1.5,12.3,4.2c0.4,0.3,0.5,1,0.2,1.4c-0.3,0.4-1,0.5-1.4,0.2C27.9,3.3,24,2,20,2   C10.1,2,2,10.1,2,20s8.1,18,18,18s18-8.1,18-18c0-3.2-0.9-6.4-2.5-9.2c-0.3-0.5-0.1-1.1,0.3-1.4c0.5-0.3,1.1-0.1,1.4,0.3   C39,12.9,40,16.4,40,20C40,31,31,40,20,40z"
       id="path4184"
       style="fill:#ffffff" /></g><g
     id="g4186"
     style="fill:#ffffff"><path
       d="M30.5,20c0,0.6-0.4,1-1,1c-0.5,0-1-0.4-1-1c0-4.7-3.8-8.6-8.5-8.6c-4.7,0-8.5,3.8-8.5,8.6c0,4.7,3.8,8.6,8.5,8.6l-1.7-1.7   c-0.4-0.4-0.4-1,0-1.4c0.4-0.4,1-0.4,1.4,0l3.1,3.1l0.2,0.1l0.2,0.2c0.2,0.2,0.3,0.4,0.3,0.7c0,0.3-0.1,0.5-0.3,0.7l-3.4,3.4   C19.5,33.9,19.2,34,19,34s-0.5-0.1-0.7-0.3c-0.4-0.4-0.4-1,0-1.4l1.7-1.7c-5.8,0-10.5-4.7-10.5-10.6S14.2,9.4,20,9.4   S30.5,14.2,30.5,20z"
       id="path4188"
       style="fill:#ffffff" /></g></svg>